# xmcd
#
# Track frame offsets:
#	150
#	16405
#	34462
#	48799
#	61778
#	80264
#	97882
#	114401
#	132827
#	152928
#	173508
#	195584
#	214151
#	230826
#	248985
#	268932
#
# Disc length: 3815 seconds
#
# Revision: 1
# Processed by: cddbd v1.5.2PL0 Copyright (c) Steve Scherf et al.
# Submitted via: audiograbber 1.83.01
#
DISCID=d50ee510
DTITLE=JonesTM - HC200711
DYEAR=2007
DGENRE=Country
TTITLE0=Shawn King and Willie Nelson - I Give
TTITLE1=Vince Gill - What You Give Away [Edit]
TTITLE2=Lee Brice - She Ain't Right [Radio Edit]
TTITLE3=Friday Night Fireside - Stephen Cochran
TTITLE4=Miranda Lambert - Famous In A Small Town
TTITLE5=Rodney Carrington - Show Them To Me [Edited]
TTITLE6=Trent Tomlinson - Just Might Have Her Radio On
TTITLE7=Gray, Macy - Shoo Be Doo (No Words)
TTITLE8=Joss Stone Feat. Common - Tell Me What We're Gonna Do Now
TTITLE9=Robin Thicke Feat. Faith Evans - Got 2 Be Down [Album Version]
TTITLE10=Brian McKnight - What's My Name [Album Version]
TTITLE11=Bar-Kays Feat. Jazze Pha - Sho Nuf
TTITLE12=Keiko Matsui Feat. Paul Taylor - Black River [Edit]
TTITLE13=Rob Maletick - Backwards Talkin' [Album Version]
TTITLE14=Doc Powell - Me, Myself and Rio [Album Version]
TTITLE15=Lynne Fiddmont - Holiday
EXTD=
EXTT0=
EXTT1=
EXTT2=
EXTT3=
EXTT4=
EXTT5=
EXTT6=
EXTT7=
EXTT8=
EXTT9=
EXTT10=
EXTT11=
EXTT12=
EXTT13=
EXTT14=
EXTT15=
PLAYORDER=
